<svg xmlns="http://www.w3.org/2000/svg" width="76.678" height="67.781" viewBox="0 0 76.678 67.781">
  <g id="Logo" transform="translate(-138.416 -22.145)">
    <path id="Path_1478" data-name="Path 1478" d="M0,3.7,75.8-2.7V29.128H0Z" transform="translate(139 60.798)" fill="#2dc2d6"/>
    <path id="Path_1470" data-name="Path 1470" d="M-896.764,753.675h-21.7l-2.982,6.969,4.385,2.2,18.7-.54,2.1-6.915Z" transform="translate(1099.625 -710.247)" fill="#014181"/>
    <path id="Path_1471" data-name="Path 1471" d="M-1078.334,782.444a4.7,4.7,0,0,1-.943-.1,4.225,4.225,0,0,1-1.819-.865,3.249,3.249,0,0,1-1.194-2.364l-.016-.221.036-.219a5.9,5.9,0,0,1,.208-.789,11.156,11.156,0,0,1-1.4-.888,15.25,15.25,0,0,1-2.226-2.022,14,14,0,0,1-1.616-2.186,17.087,17.087,0,0,1-.99-1.915,9.749,9.749,0,0,1-.545-1.45c-.021-.076-.038-.136-.052-.184l-.018-.026-.091-.293a3.259,3.259,0,0,1,.086-2.089,2.965,2.965,0,0,1,1.542-1.766,2.512,2.512,0,0,1,1.067-.236,3,3,0,0,1,1.694.563,5.522,5.522,0,0,1,1.775,2.456l.015.034c.04.094.158.348.494.988a7.467,7.467,0,0,0,.911,1.31,6.967,6.967,0,0,0,1.409,1.235,3.37,3.37,0,0,0,.3.179c.344-.861.715-1.767,1.109-2.711.429-1.027.869-2.065,1.314-3.1-.026.049-.054.1-.084.146a2.58,2.58,0,0,1-1.828,1.169,2.132,2.132,0,0,1-.334.026,5.331,5.331,0,0,1-1.277-.216,10.98,10.98,0,0,1-1.9-.686,10,10,0,0,1-2.023-1.249,4.978,4.978,0,0,1-1.688-2.362,4.687,4.687,0,0,1,.053-2.616A12.123,12.123,0,0,1-1085.15,757a21.179,21.179,0,0,1,2.291-3.3,19.464,19.464,0,0,1,3.669-3.347,25.962,25.962,0,0,1,5.075-2.77,28.361,28.361,0,0,1,6.7-1.793,27.1,27.1,0,0,1,3.7-.287,15.323,15.323,0,0,1,1.874.108,12.505,12.505,0,0,1,3.885,1.038,7.533,7.533,0,0,1,2.6,1.933,8.247,8.247,0,0,1,1.193,1.846,4.3,4.3,0,0,1,.355.876c.057.208.1.375.123.521a10.982,10.982,0,0,1,.229,3.156,7.437,7.437,0,0,1,1.732-.738l.022-.006a2.9,2.9,0,0,1,.744-.091,4.928,4.928,0,0,1,.953.1,7.225,7.225,0,0,1,1.64.55,9.14,9.14,0,0,1,1.6.964,5.817,5.817,0,0,1,1.34,1.4q.2-.26.4-.512a15.269,15.269,0,0,1,2.76-2.627,9.642,9.642,0,0,1,3.47-1.636,6.447,6.447,0,0,1,1.51-.169c.224,0,.458.01.7.03a8.8,8.8,0,0,1,2.261.5,7.973,7.973,0,0,1,2.1,1.145,5.708,5.708,0,0,1,1.646,1.941,2.068,2.068,0,0,1,.161,1.568,2.147,2.147,0,0,1-.577.938l.06.084,1.172-1.578c.307-.8.585-1.494.86-2.161.507-1.227,1.035-2.434,1.57-3.586s1.036-2.183,1.49-3.068a20.569,20.569,0,0,1,1.335-2.294,2.988,2.988,0,0,1,2.309-1.564h.082l.094.008a5.566,5.566,0,0,1,2.037.582,6.823,6.823,0,0,1,1.522,1.04,4.922,4.922,0,0,1,1.072,1.349,2.346,2.346,0,0,1-.2,2.7l-.035.042-.038.04a19.912,19.912,0,0,0-1.989,2.524c-.52.765-1.033,1.573-1.531,2.414a2.464,2.464,0,0,1,.394-.1,2.717,2.717,0,0,1,.428-.034,2.9,2.9,0,0,1,1.367.35,3.77,3.77,0,0,1,1.2,1.023,4.708,4.708,0,0,1,.725,1.324l.113.315,0,.335a3.73,3.73,0,0,1-.742,1.9c-.326.534-.75,1.18-1.262,1.921s-1.085,1.525-1.706,2.333-1.265,1.6-1.89,2.313a20.914,20.914,0,0,1-1.888,1.927,4.953,4.953,0,0,1-2.131,1.247l-.056.012-.056.009a2.385,2.385,0,0,1-.366.028h-.014a6.284,6.284,0,0,1-.792.047,4.416,4.416,0,0,1-1.381-.234,4.929,4.929,0,0,1-1.41-.763q-.069-.052-.138-.108c-.355.367-.7.7-1.036.994a4.5,4.5,0,0,1-2.234,1.207,2.4,2.4,0,0,1-.369.029h-.011c-.223.03-.464.05-.73.062-.055,0-.108,0-.161,0a4.167,4.167,0,0,1-1.309-.22,5.156,5.156,0,0,1-1.4-.739q-.16-.116-.316-.251-.486.5-.962.946a7.815,7.815,0,0,1-2.647,1.805l-.159.055-.166.027a5.282,5.282,0,0,1-.826.062q-.2,0-.422-.014a5.022,5.022,0,0,1-1.563-.375,6.261,6.261,0,0,1-1.569-.962,6.878,6.878,0,0,1-.85-.831c-.551.612-1.092,1.169-1.607,1.656a15.444,15.444,0,0,1-1.5,1.271,4.145,4.145,0,0,1-1.776.828,8.766,8.766,0,0,1-1.32.084h-.025a9.8,9.8,0,0,1-1.708-.159,7.538,7.538,0,0,1-1.96-.643,5.6,5.6,0,0,1-1.919-1.537l-.046-.059a8.626,8.626,0,0,1-.805-1.3l-.021-.042s-.057-.132-.076-.176q-.719.938-1.482,1.821a32.622,32.622,0,0,1-3.231,3.266,21,21,0,0,1-3.4,2.438,10.756,10.756,0,0,1-3.58,1.32,20.725,20.725,0,0,1-2.2.236c-.235.012-.468.019-.7.021-.053.128-.2.493-.2.493l-.076.127c-.056.093-.116.2-.178.325a1.212,1.212,0,0,0-.062.134l-.03.094-.039.088a2.672,2.672,0,0,1-1.97,1.543A4.236,4.236,0,0,1-1078.334,782.444Zm16.5-29.418a2.826,2.826,0,0,1,.246.855,2.669,2.669,0,0,1-1,2.376l-.043.037a6.62,6.62,0,0,0-1.061,1.218c-.477.657-1,1.455-1.552,2.37s-1.147,1.971-1.742,3.095c-.607,1.145-1.224,2.337-1.833,3.543q-.4.79-.792,1.593a41.073,41.073,0,0,0,3.461-2.808,33.472,33.472,0,0,0,3.46-3.629,22.265,22.265,0,0,0,2.4-3.524,8.839,8.839,0,0,0,1.011-2.816,1.738,1.738,0,0,0-.213-1.342,2.708,2.708,0,0,0-1.547-.826A5.957,5.957,0,0,0-1061.832,753.026Zm-15.148,11.752a2.594,2.594,0,0,1-.119.577l.259-.6Zm.968-1.916c.517-1.168,1.036-2.316,1.55-3.426.614-1.325,1.2-2.536,1.747-3.61a23.384,23.384,0,0,0-2.548,1.744,16.646,16.646,0,0,0-2.291,2.15,6.664,6.664,0,0,0-1.16,1.775,1.955,1.955,0,0,0-.076.222Z" transform="translate(1230.177 -702.851)" fill="#f1f1f1"/>
    <g id="Group_184" data-name="Group 184" transform="translate(139.166 39.663)">
      <path id="Path_1473" data-name="Path 1473" d="M-922.382,816.718a11.725,11.725,0,0,0,.735-1.187,8.89,8.89,0,0,0,.513-1.107,6.965,6.965,0,0,0-1.535,1.592,15.6,15.6,0,0,0-1.345,2.236,2.148,2.148,0,0,0,.794-.536A7.054,7.054,0,0,0-922.382,816.718Z" transform="translate(962.457 -797.207)" fill="#014181"/>
      <path id="Path_1474" data-name="Path 1474" d="M-1021.918,751.186a6.587,6.587,0,0,0-1.015-1.85,5.654,5.654,0,0,0-1.743-1.5,17.906,17.906,0,0,1,1.756-2.226l.076-.08.071-.084a4.239,4.239,0,0,0,.431-4.78,6.863,6.863,0,0,0-1.47-1.869,8.691,8.691,0,0,0-1.938-1.329,7.455,7.455,0,0,0-2.729-.781c-.109-.01-.226-.015-.341-.015h0a4.758,4.758,0,0,0-3.854,2.371,22.4,22.4,0,0,0-1.465,2.51c-.465.907-.977,1.96-1.522,3.133-.42.9-.835,1.84-1.239,2.792a8.079,8.079,0,0,0-.8-.7,9.856,9.856,0,0,0-2.6-1.416,10.7,10.7,0,0,0-2.75-.605c-.289-.024-.575-.037-.852-.037a8.343,8.343,0,0,0-1.953.223,11.511,11.511,0,0,0-4.14,1.948,16.853,16.853,0,0,0-2.125,1.856l-.141-.107a11.048,11.048,0,0,0-1.925-1.161,9.125,9.125,0,0,0-2.064-.689,6.81,6.81,0,0,0-1.323-.141,5.038,5.038,0,0,0-.721.051q-.065-.444-.162-.872c-.036-.188-.084-.393-.15-.632a6.1,6.1,0,0,0-.479-1.208,10.193,10.193,0,0,0-1.43-2.214,9.386,9.386,0,0,0-3.235-2.436,14.321,14.321,0,0,0-4.468-1.209,17.184,17.184,0,0,0-2.105-.122,28.867,28.867,0,0,0-3.936.3l-.021,0-.021,0a30.25,30.25,0,0,0-7.149,1.918,27.839,27.839,0,0,0-5.443,2.975,21.349,21.349,0,0,0-4.023,3.676,23.025,23.025,0,0,0-2.494,3.6,13.94,13.94,0,0,0-1.4,3.462,6.691,6.691,0,0,0-.007,3.645q.025.076.052.151l-.008,0a4.89,4.89,0,0,0-2.524,2.84,5.171,5.171,0,0,0-.112,3.277l.181.586,0,.006a11.92,11.92,0,0,0,.6,1.567,18.73,18.73,0,0,0,1.089,2.11,15.863,15.863,0,0,0,1.833,2.483,17.142,17.142,0,0,0,2.5,2.276q.191.143.39.28l0,.02.031.442a5.154,5.154,0,0,0,1.889,3.7,6.086,6.086,0,0,0,2.619,1.243,6.587,6.587,0,0,0,1.326.138,6.1,6.1,0,0,0,1.291-.138,4.588,4.588,0,0,0,3.3-2.633l.078-.179c.634-.046,1.3-.123,1.977-.231a12.626,12.626,0,0,0,4.211-1.54,22.9,22.9,0,0,0,3.708-2.656,34.355,34.355,0,0,0,3.318-3.337,7.407,7.407,0,0,0,2.209,1.639,9.428,9.428,0,0,0,2.446.8,11.741,11.741,0,0,0,2.04.188h.03c.256,0,.491-.007.709-.018a5.045,5.045,0,0,0,2.138-.459,13.507,13.507,0,0,0,1.349-.793,17.274,17.274,0,0,0,1.69-1.428q.2-.191.41-.4a7.741,7.741,0,0,0,1.608.908,6.91,6.91,0,0,0,2.154.512c.183.012.366.018.544.018a7.176,7.176,0,0,0,1.122-.086l.331-.053.317-.111a9.381,9.381,0,0,0,3.223-2.124,6.354,6.354,0,0,0,.887.373,6.047,6.047,0,0,0,1.9.315q.121,0,.241-.005c.281-.012.539-.033.784-.062a4.229,4.229,0,0,0,.539-.05,6.353,6.353,0,0,0,3.186-1.653l.04-.035a6.135,6.135,0,0,0,.708.286,6.279,6.279,0,0,0,1.958.33h.015a8.308,8.308,0,0,0,.915-.048,4.216,4.216,0,0,0,.549-.05l.114-.018.113-.025a6.7,6.7,0,0,0,2.971-1.674,22.81,22.81,0,0,0,2.062-2.1c.649-.744,1.31-1.553,1.963-2.4.641-.833,1.234-1.644,1.762-2.41.539-.781.971-1.439,1.32-2.011a5.461,5.461,0,0,0,1.017-2.864l.006-.669Zm-4.011,2.2q-.466.763-1.2,1.832t-1.649,2.255q-.911,1.185-1.816,2.222a18.939,18.939,0,0,1-1.715,1.752,3.379,3.379,0,0,1-1.291.82.476.476,0,0,1-.073.006l-.043,0-.044,0a.458.458,0,0,0-.072.006,4.183,4.183,0,0,1-.652.045,2.526,2.526,0,0,1-.784-.139,3.053,3.053,0,0,1-.867-.478,4.84,4.84,0,0,1-.935-.994,1.575,1.575,0,0,1-.061-.777q-.467.571-.929,1.1a18.592,18.592,0,0,1-1.628,1.651,2.876,2.876,0,0,1-1.286.761.489.489,0,0,1-.074.006l-.043,0-.044,0a.458.458,0,0,0-.072.006,5.952,5.952,0,0,1-.664.062l-.079,0a2.283,2.283,0,0,1-.717-.124,3.276,3.276,0,0,1-.881-.475,4.427,4.427,0,0,1-.953-1.021,1.572,1.572,0,0,1-.261-.721,34.882,34.882,0,0,1-2.461,2.589,6.294,6.294,0,0,1-1.976,1.4,3.392,3.392,0,0,1-.531.039q-.145,0-.3-.01a3.146,3.146,0,0,1-.976-.24,4.381,4.381,0,0,1-1.089-.677,6.241,6.241,0,0,1-1.141-1.284,3.22,3.22,0,0,1-.5-1.418c-.077.091-.151.181-.229.273q-.778.914-1.562,1.786t-1.511,1.559a4.712,4.712,0,0,1-3.31,1.669h-.019a7.908,7.908,0,0,1-1.379-.13,5.636,5.636,0,0,1-1.469-.485,3.722,3.722,0,0,1-1.277-1.028,6.685,6.685,0,0,1-.63-1.013,5.646,5.646,0,0,1-.447-2.537,10.386,10.386,0,0,1,.533-2.825c.148-.448.321-.892.515-1.333-.044.087-.084.173-.129.26a39.686,39.686,0,0,1-2.357,3.979,38.505,38.505,0,0,1-2.8,3.669,30.573,30.573,0,0,1-3.043,3.077,19.026,19.026,0,0,1-3.091,2.22,8.855,8.855,0,0,1-2.947,1.1,18.859,18.859,0,0,1-2,.215q-.388.019-.762.019-.537,0-1.044-.04-.223.445-.392.854t-.3.721q-.116.194-.239.433a2.729,2.729,0,0,0-.182.424.836.836,0,0,1-.646.454,2.3,2.3,0,0,1-.493.052,2.792,2.792,0,0,1-.563-.06,2.344,2.344,0,0,1-1.015-.484,1.39,1.39,0,0,1-.5-1.034,6.2,6.2,0,0,1,.208-.722q.178-.541.484-1.381a10.268,10.268,0,0,1-2.609-1.388,13.3,13.3,0,0,1-1.952-1.77,12.024,12.024,0,0,1-1.4-1.888,15.12,15.12,0,0,1-.889-1.72,8.044,8.044,0,0,1-.452-1.188,3.618,3.618,0,0,0-.177-.558,1.423,1.423,0,0,1,.061-.9,1.126,1.126,0,0,1,.564-.69.636.636,0,0,1,.271-.059,1.164,1.164,0,0,1,.637.238,4.088,4.088,0,0,1,1.115,1.669q.14.329.56,1.128a9.272,9.272,0,0,0,1.141,1.65,8.781,8.781,0,0,0,1.789,1.577,5.659,5.659,0,0,0,2.474.911q.748-1.935,1.724-4.274t2.018-4.731q1.041-2.392,2.089-4.655t1.967-4.034q.92-1.772,1.65-2.9t1.154-1.224a1.61,1.61,0,0,1,.386-.04,3.694,3.694,0,0,1,.478.035,7.211,7.211,0,0,1,1.154.256,8.208,8.208,0,0,1,1.172.459,3.734,3.734,0,0,1,.933.614,1.179,1.179,0,0,1,.406.712.851.851,0,0,1-.367.732,8.516,8.516,0,0,0-1.392,1.569q-.77,1.061-1.64,2.5t-1.794,3.186q-.925,1.744-1.85,3.576t-1.8,3.7q-.876,1.869-1.664,3.547a33.6,33.6,0,0,0,4.72-2.757,43.024,43.024,0,0,0,4.359-3.462,35.2,35.2,0,0,0,3.655-3.833,24.018,24.018,0,0,0,2.6-3.828,10.624,10.624,0,0,0,1.213-3.431,3.63,3.63,0,0,0-.529-2.685,4.374,4.374,0,0,0-2.624-1.576,9.992,9.992,0,0,0-2.464-.265,21.545,21.545,0,0,0-2.59.174,17.724,17.724,0,0,0-3.807.942,24.783,24.783,0,0,0-3.715,1.7,25.494,25.494,0,0,0-3.286,2.192,18.461,18.461,0,0,0-2.55,2.4,8.468,8.468,0,0,0-1.481,2.3,2.348,2.348,0,0,0-.081,1.889,1.181,1.181,0,0,0,.718.648l-.029,0a1.655,1.655,0,0,1,.689.462,1.231,1.231,0,0,1,.3.6.769.769,0,0,1-.1.544.707.707,0,0,1-.523.3.255.255,0,0,1-.04,0,4.562,4.562,0,0,1-.82-.159,9.054,9.054,0,0,1-1.571-.571,8.07,8.07,0,0,1-1.641-1.014,3.112,3.112,0,0,1-1.071-1.486,3.176,3.176,0,0,1,.1-1.584,10.4,10.4,0,0,1,1.035-2.524,19.194,19.194,0,0,1,2.088-3,17.508,17.508,0,0,1,3.316-3.018,23.978,23.978,0,0,1,4.707-2.565,26.376,26.376,0,0,1,6.256-1.668,25,25,0,0,1,3.416-.266,13.349,13.349,0,0,1,1.641.093,10.789,10.789,0,0,1,3.3.867,5.659,5.659,0,0,1,1.957,1.433,6.322,6.322,0,0,1,.952,1.475,2.555,2.555,0,0,1,.234.549,3.913,3.913,0,0,1,.092.4,9.516,9.516,0,0,1,.134,3.334,18.666,18.666,0,0,1-.9,3.822,29.1,29.1,0,0,1-1.128,2.781c.089-.169.177-.338.273-.506a16.369,16.369,0,0,1,1.78-2.539,12.883,12.883,0,0,1,2.064-1.954,6.364,6.364,0,0,1,2.085-1.078,1.065,1.065,0,0,1,.267-.029,3.142,3.142,0,0,1,.59.069,5.354,5.354,0,0,1,1.208.409,7.262,7.262,0,0,1,1.265.766,3.914,3.914,0,0,1,1.031,1.14,1.6,1.6,0,0,1,.117,1.2,5.653,5.653,0,0,1-.6,1.487,13.654,13.654,0,0,1-1.028,1.555q-.594.784-1.181,1.419a10.6,10.6,0,0,1-1.107,1.055,2.032,2.032,0,0,1-.777.46,1.717,1.717,0,0,1-.5.069,2.475,2.475,0,0,1-.468-.047q-.544-.1-1.066-.256-.287.778-.492,1.514t-.322,1.384a8.112,8.112,0,0,0-.133,1.194,2.742,2.742,0,0,0,.1.907,3.782,3.782,0,0,0,1.356-.875q.821-.731,1.76-1.745t1.886-2.146q.948-1.132,1.729-2.121t1.3-1.672q.521-.683.594-.783a.885.885,0,0,1,.15-.144c.024-.047.045-.093.069-.139a16.725,16.725,0,0,1,1.9-2.881,13.321,13.321,0,0,1,2.418-2.3,7.738,7.738,0,0,1,2.794-1.323,4.552,4.552,0,0,1,1.073-.118q.26,0,.539.023a6.883,6.883,0,0,1,1.777.392,6.059,6.059,0,0,1,1.6.874,3.815,3.815,0,0,1,1.118,1.317q.122.216-.243.405a2.844,2.844,0,0,1-.866.27,4.121,4.121,0,0,1-.645.052q-.167,0-.331-.014-.476-.041-.6-.286a.389.389,0,0,0-.17-.149.314.314,0,0,0-.149-.038.341.341,0,0,0-.118.022,6.294,6.294,0,0,0-2.336,1.162,14.446,14.446,0,0,0-2.217,2.1,21.589,21.589,0,0,0-1.894,2.558,19.843,19.843,0,0,0-1.373,2.519,8.372,8.372,0,0,0-.65,1.994q-.132.827.271.968h.021a1.478,1.478,0,0,0,.762-.33,9.06,9.06,0,0,0,1.085-.92q.6-.578,1.283-1.332t1.335-1.56q.648-.806,1.254-1.606t1.082-1.491a11.148,11.148,0,0,1,1.082-1.857q.539-.726.945-.726h.024a3.57,3.57,0,0,1,1.344.343,2.6,2.6,0,0,1,.783.594,1.205,1.205,0,0,1,.3.685.963.963,0,0,1-.112.589q-1.8,2.894-2.6,4.472a10.789,10.789,0,0,0-.786,1.693,2.92,2.92,0,0,0,1.368-.891,21.846,21.846,0,0,0,1.718-1.914q.894-1.11,1.743-2.314t1.47-2.095l1.159-1.561a1.009,1.009,0,0,1,.118-.038c.33-.866.67-1.734,1.03-2.606q.751-1.819,1.537-3.512t1.458-3a18.983,18.983,0,0,1,1.208-2.082q.523-.753.762-.754h.013a3.676,3.676,0,0,1,1.351.386,4.922,4.922,0,0,1,1.1.748,3.121,3.121,0,0,1,.674.831q.211.406.038.609a21.7,21.7,0,0,0-2.184,2.765q-1.129,1.659-2.18,3.526t-1.982,3.758q-.93,1.892-1.613,3.407t-1.068,2.5q-.386.984-.315,1.061a2.984,2.984,0,0,0,1.229-.752,15.945,15.945,0,0,0,1.5-1.557q.777-.915,1.564-1.963t1.445-1.973q.659-.925,1.083-1.579t.52-.786a.817.817,0,0,1,.536-.407.862.862,0,0,1,.133-.01,1.039,1.039,0,0,1,.487.132,1.9,1.9,0,0,1,.6.521,2.817,2.817,0,0,1,.434.8A3.155,3.155,0,0,1-1025.929,753.39Z" transform="translate(1097.621 -736.675)" fill="#014181"/>
    </g>
    <path id="Path_1475" data-name="Path 1475" d="M-931.216,689.086a2.86,2.86,0,0,1-1.484-.427,2.644,2.644,0,0,1-1.087-1.183,1.945,1.945,0,0,1,.826-2.594l.045-.027.047-.024a3.278,3.278,0,0,0,.6-.445c.316-.273.68-.62,1.081-1.031s.864-.911,1.345-1.457c.28-.318.568-.648.86-.987a2.43,2.43,0,0,1-.147-1.754l.063-.228.1-.136a3.314,3.314,0,0,1,1.579-1.344,15.766,15.766,0,0,1,1.973-.792l3.242-4.019q1.315-1.643,2.536-3.157c.82-1.016,1.57-1.923,2.232-2.7.677-.793,1.271-1.446,1.765-1.943A3.66,3.66,0,0,1-914,663.717l.029-.017c.063-.036.12-.067.169-.093l.136-.071.149-.037a2.275,2.275,0,0,1,.552-.064,3.439,3.439,0,0,1,.567.051,5.91,5.91,0,0,1,.988.257,4.505,4.505,0,0,1,1.021.508,2.353,2.353,0,0,1,.919,1.1,2.124,2.124,0,0,1,.087,1.3,2.175,2.175,0,0,1-.848,1.188l-.029.022-.03.02a4.432,4.432,0,0,0-1.037,1.084,18.475,18.475,0,0,0-1.277,2.065c-.431.8-.851,1.689-1.247,2.641q-.273.655-.535,1.322l.065.014q.087-.152.178-.315c.164-.294.335-.592.508-.888.02-.076.041-.15.063-.221l.1-.324.019-.046a7.393,7.393,0,0,1,.407-.84,6.986,6.986,0,0,1,.582-.876,6.554,6.554,0,0,1,.732-.8,4.34,4.34,0,0,1,.937-.667l.045-.023a2.474,2.474,0,0,1,1.062-.239,2.683,2.683,0,0,1,.891.157,4.675,4.675,0,0,1,.581.251q.009-.112.028-.225a3.211,3.211,0,0,1,.706-1.468,4.977,4.977,0,0,1,1.6-1.235l.213-.112.239-.029c.365-.044.765-.087,1.189-.127q.311-.029.63-.049c.1-.147.187-.279.275-.4a1.8,1.8,0,0,1,1.391-.821,1.4,1.4,0,0,1,.153.008,3.588,3.588,0,0,1,1,.247,5.091,5.091,0,0,1,.814.415,4.409,4.409,0,0,1,.707.552l.085.084.079.013.05.009,1.121-.58-.779.652c.018,0,1.423,1.16,1.423,1.16l.054,1.154a1.944,1.944,0,0,1-.192.906,1.628,1.628,0,0,1-1.516.889,2.643,2.643,0,0,1-.465-.044h-.063q-.087,0-.2.006l-.319.02c-.319.456-.643.959-.967,1.5q-.268.448-.529.906a2.274,2.274,0,0,1,.593-.078,2.353,2.353,0,0,1,.327.023,2.494,2.494,0,0,1,1.007.371,2.51,2.51,0,0,1,.751.756,2.106,2.106,0,0,1,.334,1.291l-.011.154-.046.147a4.1,4.1,0,0,1-.519.958c-.234.365-.533.8-.89,1.29s-.745,1.005-1.172,1.554-.871,1.082-1.3,1.559a14.889,14.889,0,0,1-1.275,1.279,3.4,3.4,0,0,1-1.461.847l-.037.008-.037.006a1.636,1.636,0,0,1-.257.021h-.01a4.353,4.353,0,0,1-.531.029,3.05,3.05,0,0,1-.95-.162,3.516,3.516,0,0,1-.964-.511l-.085-.064q-.357.367-.7.665a2.948,2.948,0,0,1-1.618.832l-.035,0-.035,0-.122,0a4.237,4.237,0,0,1-.606-.05,4.135,4.135,0,0,1-.963-.272,4.657,4.657,0,0,1-1.025-.593,5.125,5.125,0,0,1-.992-1.007l-.028-.036-.025-.038a2.976,2.976,0,0,1-.409-.921L-917,683.722c-.035.23-.059.434-.073.611,0,.05-.006.091-.008.125l.03.042.048.3a2.307,2.307,0,0,1-.381,1.678,2.2,2.2,0,0,1-1.507.972,2.605,2.605,0,0,1-.41.032,2.905,2.905,0,0,1-.837-.128,2.641,2.641,0,0,1-1.292-.914l-2.586-3.221-.294.335c-.847.961-1.656,1.827-2.4,2.571a20.643,20.643,0,0,1-2.155,1.9,5.248,5.248,0,0,1-2.077,1.037l-.11.021Zm9.339-6.122c.088-.608.225-1.294.407-2.041l.055-.225q-.293.08-.579.161-.535.635-1.062,1.25Zm5.921-3.491c-.151.49-.29.965-.415,1.42l1.093-1.5-.007-.008c-.189.021-.4.051-.645.089Zm7.693-4.112a3.853,3.853,0,0,1,.317.43c.14-.21.264-.391.378-.547.068-.093.125-.172.178-.24q.119-.308.243-.62l.12-.3c-.194.165-.406.359-.632.575a4.754,4.754,0,0,0-.551.626C-908.232,675.313-908.249,675.339-908.264,675.362Z" transform="translate(1109.393 -639.99)" fill="#f1f1f1"/>
    <path id="Path_1476" data-name="Path 1476" d="M-876.723,711.083l-1.1,1.349q.3-.047.591-.1t.591-.1l.3-.047q.252-.708.5-1.426t.545-1.413q-.358.421-.714.862Z" transform="translate(1065.662 -675.728)" fill="#014181"/>
    <path id="Path_1477" data-name="Path 1477" d="M-903.505,667.957a2.962,2.962,0,0,0,2.226-.942h0a4.458,4.458,0,0,0-2.22-6.065c-.11-.081-.224-.158-.341-.233a6.436,6.436,0,0,0-1.025-.524,4.886,4.886,0,0,0-1.359-.335,2.686,2.686,0,0,0-.283-.015,2.952,2.952,0,0,0-2.375,1.267l-.039,0c-.439.041-.851.085-1.227.13l-.477.058-.425.224a6.6,6.6,0,0,0-1.787,1.314,3.1,3.1,0,0,0,.147-.432,3.424,3.424,0,0,0-.132-2.1,3.622,3.622,0,0,0-1.405-1.708,5.813,5.813,0,0,0-1.315-.657,7.259,7.259,0,0,0-1.21-.314,4.719,4.719,0,0,0-.777-.068,3.577,3.577,0,0,0-.87.1l-.3.075-.271.141-.1.051a5.081,5.081,0,0,0-2.055,1.418c-.518.52-1.135,1.2-1.834,2.017-.669.783-1.427,1.7-2.254,2.725-.8.994-1.656,2.057-2.539,3.161l-3,3.723c-.089.031-.173.063-.259.095-.945.37-4.165,1.864-4,4.976.013.247-.054.31-.188.214l-.18.206c-.466.529-.9,1-1.3,1.407-.377.385-.714.707-1,.957a3.105,3.105,0,0,1-.35.273l-.078.039-.09.054a3.256,3.256,0,0,0-1.336,4.248,3.972,3.972,0,0,0,1.6,1.756,4.144,4.144,0,0,0,2.155.613h.064l.225,0,.221-.042a6.476,6.476,0,0,0,2.61-1.272,21.883,21.883,0,0,0,2.3-2.02c.548-.545,1.127-1.153,1.729-1.814l1.542,1.92,1.81,1.379q.1.036.2.067a4.2,4.2,0,0,0,1.216.184,3.939,3.939,0,0,0,.614-.048,3.519,3.519,0,0,0,2.379-1.525,3.589,3.589,0,0,0,.59-2.614l-.036-.225.8-.671a6.235,6.235,0,0,0,1.061,1.024,5.959,5.959,0,0,0,1.313.756,5.423,5.423,0,0,0,1.267.354,5.486,5.486,0,0,0,.792.063c.063,0,.124,0,.181,0l.07,0,.07-.007a4.263,4.263,0,0,0,2.344-1.147l.021-.019a4.308,4.308,0,0,0,.462.184,4.341,4.341,0,0,0,1.352.228,5.84,5.84,0,0,0,.618-.03,2.988,2.988,0,0,0,.39-.036l.075-.012.075-.016a4.615,4.615,0,0,0,2.037-1.138,16.14,16.14,0,0,0,1.39-1.393c.444-.5.9-1.044,1.351-1.625.437-.561.841-1.1,1.2-1.59.376-.518.681-.961.932-1.352a5.177,5.177,0,0,0,.664-1.268l.093-.295.021-.308a3.393,3.393,0,0,0-.534-2.079,3.809,3.809,0,0,0-1.143-1.15A3.764,3.764,0,0,0-903.9,668l.041-.063C-903.741,667.951-903.623,667.957-903.505,667.957Zm-.529-2.646q-.118,0-.27.008-.391.022-.951.07a24.89,24.89,0,0,0-1.38,2.082q-.7,1.164-1.335,2.368t-1.195,2.356q-.557,1.152-.958,2.066t-.623,1.5a2.354,2.354,0,0,0-.2.618,1.97,1.97,0,0,0,.935-.614,16.032,16.032,0,0,0,1.177-1.321q.617-.766,1.2-1.6t1.015-1.447l.784-1.056a.976.976,0,0,1,.37-.072,1.061,1.061,0,0,1,.147.01,1.2,1.2,0,0,1,.484.176,1.21,1.21,0,0,1,.362.368.8.8,0,0,1,.129.5,4.292,4.292,0,0,1-.373.647q-.332.519-.848,1.228t-1.146,1.518q-.631.809-1.241,1.493a13.452,13.452,0,0,1-1.161,1.166,2.311,2.311,0,0,1-.883.555.335.335,0,0,1-.051,0l-.03,0h-.029a.332.332,0,0,0-.051,0,2.8,2.8,0,0,1-.431.028,1.747,1.747,0,0,1-.542-.1,2.273,2.273,0,0,1-.609-.329,3.166,3.166,0,0,1-.656-.686,1.055,1.055,0,0,1-.036-.466c-.182.22-.364.434-.543.639a12.669,12.669,0,0,1-1.168,1.188,1.845,1.845,0,0,1-.89.516h-.062a3,3,0,0,1-.419-.036,2.833,2.833,0,0,1-.658-.189,3.352,3.352,0,0,1-.736-.43,3.811,3.811,0,0,1-.737-.754,1.558,1.558,0,0,1-.269-.737,1.9,1.9,0,0,1,.095-.744,3.143,3.143,0,0,1,.359-.735q.236-.361.505-.708.4-.529.683-.989t.054-.748l-.219-.228q-.476.7-.9,1.267a5.236,5.236,0,0,1-.605.714q.033-.046-.015-.045a.659.659,0,0,0-.177.046.263.263,0,0,1-.088.015q-.239,0-.592-.4a.745.745,0,0,1-.2-.8l-.013.014a.684.684,0,0,1-.4.235,10.82,10.82,0,0,0-1.274.141l-.405.064q-.207.033-.421.087-.407,1.26-.714,2.391t-.479,2.02a13.629,13.629,0,0,0-.22,1.483,1.326,1.326,0,0,0,.083.777,1.012,1.012,0,0,1-.175.746.915.915,0,0,1-.633.415,1.32,1.32,0,0,1-.206.016,1.6,1.6,0,0,1-.461-.072,1.365,1.365,0,0,1-.654-.483l.023.017a1.532,1.532,0,0,1-.287-.916,7.641,7.641,0,0,1,.084-1.512q.123-.88.393-1.986t.641-2.339q-.82.191-1.617.4t-1.552.429q-1.311,1.565-2.554,2.977t-2.345,2.509a19.213,19.213,0,0,1-2.016,1.778,4.08,4.08,0,0,1-1.543.8h-.022a1.571,1.571,0,0,1-.816-.242,1.357,1.357,0,0,1-.572-.608.663.663,0,0,1,.316-.941,4.533,4.533,0,0,0,.873-.624q.516-.447,1.161-1.106t1.391-1.506q.747-.848,1.566-1.808a1.671,1.671,0,0,1-.511-.607,1.129,1.129,0,0,1-.063-.841l.033-.046a2,2,0,0,1,1.03-.842,15.423,15.423,0,0,1,2.165-.84l3.485-4.32q1.318-1.647,2.536-3.157t2.208-2.669q.99-1.16,1.7-1.869a2.877,2.877,0,0,1,1.02-.78l.2-.031a1.135,1.135,0,0,1,.164-.117l.13-.071a.969.969,0,0,1,.235-.025,2.173,2.173,0,0,1,.353.033,4.593,4.593,0,0,1,.771.2,3.185,3.185,0,0,1,.726.36,1.082,1.082,0,0,1,.432.488.821.821,0,0,1,.041.51.919.919,0,0,1-.37.474,5.653,5.653,0,0,0-1.367,1.4,19.676,19.676,0,0,0-1.37,2.212q-.68,1.262-1.3,2.758t-1.174,3q.23-.011.437-.011.283,0,.526.02a4.526,4.526,0,0,1,.716.109q.426.135.492.418a.924.924,0,0,1,0,.4c.162-.268.328-.546.5-.837s.354-.6.548-.948.393-.693.595-1.036a3.2,3.2,0,0,1,.081-.317l.088-.277a6.029,6.029,0,0,1,.336-.691,5.7,5.7,0,0,1,.474-.713,5.245,5.245,0,0,1,.587-.64,3.028,3.028,0,0,1,.655-.469,1.176,1.176,0,0,1,.507-.115,1.384,1.384,0,0,1,.46.083,3.232,3.232,0,0,1,.931.51,2.708,2.708,0,0,1,.634.679q.218.35.095.471l-.285.248.056-.029q-.358.3-.761.688a5.987,5.987,0,0,0-.7.8,2.078,2.078,0,0,0-.378.809.771.771,0,0,0,.258.729,2.039,2.039,0,0,1,.618,1.218,3.019,3.019,0,0,1-.161,1.281,5.662,5.662,0,0,1-.621,1.253q-.4.61-.784,1.117a.46.46,0,0,1-.133.183l.039-.006a9.881,9.881,0,0,0,.868-.907q.461-.539.921-1.149t.881-1.213q.42-.6.73-1.078.293-.451.509-.749a2.754,2.754,0,0,1,.252-.324l.006,0c.1-.271.209-.543.319-.819q.456-1.146.955-2.278t.969-2.118a16.068,16.068,0,0,0-1.578.392,1.553,1.553,0,0,0-.786.408.854.854,0,0,1-.428-.4,1.041,1.041,0,0,1-.1-.7,1.943,1.943,0,0,1,.439-.869,3.782,3.782,0,0,1,1.194-.9q.536-.065,1.155-.123t1.263-.079a8.5,8.5,0,0,1,.559-.878q.228-.3.352-.3h.015a2.278,2.278,0,0,1,.653.159,3.773,3.773,0,0,1,.606.309,3.079,3.079,0,0,1,.5.387,2.94,2.94,0,0,1,.345.39,4.156,4.156,0,0,1,.495.053c.139.026.258.05.356.075l-.02,0a.944.944,0,0,1,.2.283,2.327,2.327,0,0,1,.232.571.739.739,0,0,1-.029.521q-.077.158-.346.158a1.373,1.373,0,0,1-.24-.024A1.523,1.523,0,0,0-904.034,665.311Z" transform="translate(1113.953 -635.417)" fill="#014181"/>
    <path id="Path_1486" data-name="Path 1486" d="M1443.3,25.1h-23.167V44.967" transform="translate(-1280.967 0.9)" fill="none" stroke="#2dc2d6" stroke-width="1.5"/>
  </g>
</svg>
